<svg width="174" height="75" viewBox="0 0 174 75" fill="none" xmlns="http://www.w3.org/2000/svg">
<path d="M17.753 15.7756L17.7532 15.7756C18.7817 15.5121 19.6453 15.2902 20.344 15.0707C21.0633 14.8448 21.4991 14.653 21.7306 14.4886C21.7424 14.4803 21.753 14.4724 21.7625 14.4652C21.7472 14.4381 21.7266 14.4046 21.6987 14.3646C21.6012 14.2247 21.4409 14.0407 21.1915 13.8078C20.1629 12.8477 18.0686 11.4616 14.5095 9.35935C11.2704 7.44608 6.89462 4.98273 1.15403 1.76127C1.22318 2.26936 1.31454 2.87727 1.42649 3.57276C1.80789 5.94218 2.41824 9.26678 3.16557 12.9725L17.753 15.7756ZM17.753 15.7756C15.5341 16.3444 13.9636 16.8943 12.5668 17.8881C11.1809 18.8743 10.0401 20.2455 8.56717 22.2959M17.753 15.7756L8.56717 22.2959M8.56717 22.2959C8.35784 22.5872 8.16271 22.8608 7.98018 23.1166M8.56717 22.2959L7.98018 23.1166M7.98018 23.1166C7.18991 24.2245 6.63591 25.0011 6.18887 25.4572M7.98018 23.1166L6.18887 25.4572M6.18887 25.4572C6.15205 25.4947 6.11878 25.527 6.08895 25.5548M6.18887 25.4572L6.08895 25.5548M6.08895 25.5548C5.98767 25.3652 5.86143 25.0666 5.71442 24.615C5.51449 24.0009 5.30053 23.1836 5.05673 22.1256C4.6584 20.397 4.19543 18.0936 3.5937 15.0997C3.4583 14.4261 3.31588 13.7175 3.16559 12.9726L6.08895 25.5548ZM27.4033 51.9192C27.2785 41.6492 27.2462 36.1475 27.4446 33.1538C27.5454 31.6336 27.7005 30.8971 27.8602 30.5323C27.9282 30.3769 27.9772 30.3377 27.9846 30.3318L27.9848 30.3316C27.9947 30.3237 28.0282 30.2982 28.1555 30.265C28.1437 30.2681 28.1508 30.2674 28.1844 30.2641C28.24 30.2586 28.3683 30.246 28.603 30.2317C28.9291 30.2119 29.3818 30.1923 29.9568 30.1731C31.1054 30.1347 32.7175 30.0986 34.73 30.0651C38.7537 29.9981 44.3611 29.9412 51.0262 29.8949C64.3556 29.8022 81.9051 29.7515 99.4531 29.7444C117.001 29.7374 134.546 29.774 147.865 29.8559C154.525 29.8968 160.126 29.9491 164.142 30.0128C166.151 30.0447 167.759 30.0794 168.903 30.1169C169.476 30.1356 169.926 30.1548 170.249 30.1744C170.412 30.1841 170.535 30.1936 170.622 30.2023C170.672 30.2072 170.699 30.2109 170.709 30.2123L172.201 30.6121L171.941 51.9642L171.684 73.1043H99.6723H27.6603L27.4033 51.9192Z" fill="black" stroke="white" stroke-width="2"/>
<path d="M55.42 50.04C55.42 49.5867 55.3267 49.1867 55.14 48.84C54.9667 48.4933 54.7267 48.2067 54.42 47.98C54.1133 47.7533 53.76 47.58 53.36 47.46C52.96 47.34 52.54 47.28 52.1 47.28C51.7133 47.28 51.3467 47.3333 51 47.44C50.6533 47.5333 50.34 47.6733 50.06 47.86C49.7933 48.0467 49.58 48.28 49.42 48.56C49.26 48.8267 49.18 49.14 49.18 49.5V49.62C49.18 50.0067 49.26 50.34 49.42 50.62C49.58 50.8867 49.8133 51.12 50.12 51.32C50.44 51.5067 50.8333 51.6667 51.3 51.8C51.7667 51.92 52.3133 52.0267 52.94 52.12C54.4067 52.3467 55.4867 52.78 56.18 53.42C56.8733 54.0467 57.22 54.8933 57.22 55.96V56.2C57.22 56.8 57.1133 57.3533 56.9 57.86C56.7 58.3533 56.3933 58.78 55.98 59.14C55.58 59.5 55.08 59.78 54.48 59.98C53.88 60.18 53.1867 60.28 52.4 60.28C51.5067 60.28 50.7133 60.1533 50.02 59.9C49.34 59.6333 48.7667 59.2733 48.3 58.82C47.8467 58.3533 47.5 57.8133 47.26 57.2C47.02 56.5733 46.9 55.8933 46.9 55.16V54.56H48.58V55.04C48.58 56.2667 48.9133 57.1867 49.58 57.8C50.26 58.4133 51.2 58.72 52.4 58.72C53.44 58.72 54.22 58.4933 54.74 58.04C55.2733 57.5733 55.54 56.96 55.54 56.2V56.08C55.54 55.3467 55.2667 54.7867 54.72 54.4C54.1867 54.0133 53.3133 53.7333 52.1 53.56C51.3933 53.4667 50.7533 53.3267 50.18 53.14C49.62 52.94 49.14 52.6867 48.74 52.38C48.34 52.06 48.0333 51.68 47.82 51.24C47.6067 50.8 47.5 50.28 47.5 49.68V49.44C47.5 48.8933 47.6133 48.3933 47.84 47.94C48.0667 47.4867 48.38 47.0933 48.78 46.76C49.1933 46.4267 49.68 46.1733 50.24 46C50.8133 45.8133 51.44 45.72 52.12 45.72C52.9067 45.72 53.6067 45.8333 54.22 46.06C54.8467 46.2867 55.3733 46.5933 55.8 46.98C56.2267 47.3533 56.5467 47.8 56.76 48.32C56.9867 48.8267 57.1 49.36 57.1 49.92V50.76H55.42V50.04ZM61.5461 60H59.9861V46H61.5461V51.88H61.7861C62.0928 51.24 62.5194 50.7333 63.0661 50.36C63.6261 49.9867 64.3061 49.8 65.1061 49.8C66.1861 49.8 67.0594 50.16 67.7261 50.88C68.4061 51.5867 68.7461 52.6533 68.7461 54.08V60H67.1861V54.4C67.1861 53.36 66.9528 52.58 66.4861 52.06C66.0194 51.54 65.3861 51.28 64.5861 51.28C63.6394 51.28 62.8928 51.6067 62.3461 52.26C61.8128 52.9 61.5461 53.76 61.5461 54.84V60ZM78.8122 47.44H75.8922C75.5322 47.44 75.3522 47.64 75.3522 48.04V50.08H77.8522V51.52H75.3522V60H73.7922V51.52H71.4522V50.08H73.7922V47.56C73.7922 47.1067 73.9322 46.7333 74.2122 46.44C74.5055 46.1467 74.8789 46 75.3322 46H80.3722V60H78.8122V47.44ZM85.6183 55.52C85.6583 56.5067 85.9649 57.3 86.5383 57.9C87.1116 58.5 87.9116 58.8 88.9383 58.8C89.4049 58.8 89.8116 58.7467 90.1583 58.64C90.5049 58.5333 90.7983 58.3867 91.0383 58.2C91.2916 58.0133 91.4916 57.8 91.6383 57.56C91.7983 57.3067 91.9249 57.04 92.0183 56.76L93.4983 57.16C93.2183 58.08 92.6983 58.8333 91.9383 59.42C91.1916 59.9933 90.1783 60.28 88.8983 60.28C88.1916 60.28 87.5383 60.16 86.9383 59.92C86.3516 59.6667 85.8449 59.3133 85.4183 58.86C84.9916 58.4067 84.6583 57.8667 84.4183 57.24C84.1783 56.6133 84.0583 55.92 84.0583 55.16V54.68C84.0583 53.9867 84.1783 53.34 84.4183 52.74C84.6716 52.14 85.0183 51.6267 85.4583 51.2C85.8983 50.76 86.4116 50.42 86.9983 50.18C87.5983 49.9267 88.2449 49.8 88.9383 49.8C89.7516 49.8 90.4516 49.9533 91.0383 50.26C91.6383 50.5533 92.1249 50.92 92.4983 51.36C92.8849 51.8 93.1649 52.28 93.3383 52.8C93.5249 53.32 93.6183 53.8 93.6183 54.24V55.52H85.6183ZM88.9383 51.28C88.4983 51.28 88.0849 51.3533 87.6983 51.5C87.3249 51.6333 86.9916 51.8267 86.6983 52.08C86.4183 52.3333 86.1849 52.6333 85.9983 52.98C85.8249 53.3133 85.7116 53.68 85.6583 54.08H92.0583C92.0316 53.6533 91.9249 53.2667 91.7383 52.92C91.5649 52.5733 91.3316 52.28 91.0383 52.04C90.7583 51.8 90.4316 51.6133 90.0583 51.48C89.6983 51.3467 89.3249 51.28 88.9383 51.28ZM96.3844 50.08H99.5044V46H101.064V50.08H104.904V51.52H101.064V57.96C101.064 58.36 101.244 58.56 101.604 58.56H104.424V60H101.044C100.591 60 100.218 59.8533 99.9244 59.56C99.6444 59.2667 99.5044 58.8933 99.5044 58.44V51.52H96.3844V50.08ZM116.05 50.08H117.61V60H116.05V58.2H115.81C115.49 58.84 115.07 59.3467 114.55 59.72C114.03 60.0933 113.37 60.28 112.57 60.28C112.024 60.28 111.517 60.1867 111.05 60C110.597 59.8267 110.204 59.56 109.87 59.2C109.55 58.84 109.297 58.3933 109.11 57.86C108.937 57.3267 108.85 56.7067 108.85 56V50.08H110.41V55.8C110.41 56.84 110.624 57.6 111.05 58.08C111.477 58.56 112.13 58.8 113.01 58.8C113.957 58.8 114.697 58.48 115.23 57.84C115.777 57.1867 116.05 56.32 116.05 55.24V50.08ZM122.357 55.52C122.397 56.5067 122.703 57.3 123.277 57.9C123.85 58.5 124.65 58.8 125.677 58.8C126.143 58.8 126.55 58.7467 126.897 58.64C127.243 58.5333 127.537 58.3867 127.777 58.2C128.03 58.0133 128.23 57.8 128.377 57.56C128.537 57.3067 128.663 57.04 128.757 56.76L130.237 57.16C129.957 58.08 129.437 58.8333 128.677 59.42C127.93 59.9933 126.917 60.28 125.637 60.28C124.93 60.28 124.277 60.16 123.677 59.92C123.09 59.6667 122.583 59.3133 122.157 58.86C121.73 58.4067 121.397 57.8667 121.157 57.24C120.917 56.6133 120.797 55.92 120.797 55.16V54.68C120.797 53.9867 120.917 53.34 121.157 52.74C121.41 52.14 121.757 51.6267 122.197 51.2C122.637 50.76 123.15 50.42 123.737 50.18C124.337 49.9267 124.983 49.8 125.677 49.8C126.49 49.8 127.19 49.9533 127.777 50.26C128.377 50.5533 128.863 50.92 129.237 51.36C129.623 51.8 129.903 52.28 130.077 52.8C130.263 53.32 130.357 53.8 130.357 54.24V55.52H122.357ZM125.677 51.28C125.237 51.28 124.823 51.3533 124.437 51.5C124.063 51.6333 123.73 51.8267 123.437 52.08C123.157 52.3333 122.923 52.6333 122.737 52.98C122.563 53.3133 122.45 53.68 122.397 54.08H128.797C128.77 53.6533 128.663 53.2667 128.477 52.92C128.303 52.5733 128.07 52.28 127.777 52.04C127.497 51.8 127.17 51.6133 126.797 51.48C126.437 51.3467 126.063 51.28 125.677 51.28ZM135.523 52.64C135.523 53.12 135.723 53.4867 136.123 53.74C136.536 53.9933 137.283 54.16 138.363 54.24C139.523 54.3333 140.403 54.6133 141.003 55.08C141.616 55.5333 141.923 56.2 141.923 57.08V57.2C141.923 57.68 141.823 58.1133 141.623 58.5C141.436 58.8733 141.169 59.1933 140.823 59.46C140.489 59.7267 140.076 59.9267 139.583 60.06C139.103 60.2067 138.576 60.28 138.003 60.28C137.229 60.28 136.563 60.18 136.003 59.98C135.456 59.7667 134.996 59.4933 134.623 59.16C134.263 58.8133 133.989 58.4267 133.803 58C133.616 57.56 133.509 57.12 133.483 56.68L134.963 56.32C135.029 57.08 135.323 57.6933 135.843 58.16C136.363 58.6133 137.056 58.84 137.923 58.84C138.656 58.84 139.243 58.7 139.683 58.42C140.136 58.1267 140.363 57.72 140.363 57.2C140.363 56.64 140.143 56.24 139.703 56C139.263 55.76 138.549 55.6067 137.563 55.54C136.416 55.46 135.536 55.1933 134.923 54.74C134.309 54.2867 134.003 53.6267 134.003 52.76V52.64C134.003 52.1733 134.103 51.7667 134.303 51.42C134.503 51.06 134.769 50.76 135.103 50.52C135.449 50.28 135.836 50.1 136.263 49.98C136.689 49.86 137.136 49.8 137.603 49.8C138.256 49.8 138.829 49.8933 139.323 50.08C139.816 50.2533 140.229 50.4867 140.563 50.78C140.896 51.06 141.149 51.3867 141.323 51.76C141.509 52.1333 141.629 52.5067 141.683 52.88L140.203 53.24C140.136 52.6 139.876 52.1 139.423 51.74C138.983 51.38 138.403 51.2 137.683 51.2C137.403 51.2 137.129 51.2333 136.863 51.3C136.609 51.3533 136.383 51.44 136.183 51.56C135.983 51.68 135.823 51.8333 135.703 52.02C135.583 52.1933 135.523 52.4 135.523 52.64ZM148.789 47.12C148.789 46.7333 148.922 46.4067 149.189 46.14C149.469 45.86 149.802 45.72 150.189 45.72C150.575 45.72 150.902 45.86 151.169 46.14C151.449 46.4067 151.589 46.7333 151.589 47.12C151.589 47.5067 151.449 47.84 151.169 48.12C150.902 48.3867 150.575 48.52 150.189 48.52C149.802 48.52 149.469 48.3867 149.189 48.12C148.922 47.84 148.789 47.5067 148.789 47.12ZM145.949 58.56H149.429V51.52H146.309V50.08H150.989V58.56H154.229V60H145.949V58.56Z" fill="#FAFAFA"/>
</svg>
